<svg width="80" height="80" viewBox="0 0 80 80" fill="none" xmlns="http://www.w3.org/2000/svg">
<path d="M1 40L39.9999 1.00012L78.9999 40L39.9999 79L1 40Z" stroke="#1A1B1C"/>
<path d="M39.9999 1L78.9999 39.9999L39.9999 78.9998L1 39.9999L20.5 20.5" stroke="#1A1B1C"/>
<path d="M10.5033 40.0105L10.4929 40.0001L10.5033 39.9897L10.1602 39.6465L12.2084 37.5983L12.562 37.9519L13.2482 37.2657L12.8946 36.9121L14.9533 34.8535L15.3068 35.207L15.993 34.5208L15.6395 34.1672L17.6981 32.1086L18.0517 32.4621L18.7379 31.7759L18.3844 31.4224L20.443 29.3637L20.7966 29.7173L21.4828 29.0311L21.1292 28.6775L23.1879 26.6189L23.5414 26.9724L24.2277 26.2862L23.8741 25.9326L25.9328 23.874L26.2863 24.2275L26.9725 23.5413L26.619 23.1878L28.6776 21.1291L29.0312 21.4827L29.7174 20.7964L29.3639 20.4429L31.4225 18.3842L31.7761 18.7378L32.4623 18.0516L32.1087 17.698L34.1674 15.6394L34.5209 15.9929L35.2071 15.3067L34.8536 14.9532L36.9122 12.8945L37.2658 13.2481L37.952 12.5618L37.5985 12.2083L39.6467 10.1601L39.9898 10.5032L40.0002 10.4927L40.0107 10.5032L40.3538 10.1601L42.402 12.2083L42.0484 12.5618L42.7347 13.2481L43.0882 12.8945L45.1469 14.9532L44.7933 15.3067L45.4795 15.9929L45.8331 15.6394L47.8917 17.698L47.5382 18.0516L48.2244 18.7378L48.5779 18.3842L50.6366 20.4429L50.283 20.7964L50.9693 21.4827L51.3228 21.1291L53.3815 23.1878L53.0279 23.5413L53.7141 24.2275L54.0677 23.874L56.1263 25.9326L55.7728 26.2862L56.459 26.9724L56.8126 26.6189L58.8712 28.6775L58.5177 29.0311L59.2039 29.7173L59.5574 29.3637L61.6161 31.4224L61.2625 31.7759L61.9488 32.4621L62.3023 32.1086L64.361 34.1672L64.0074 34.5208L64.6936 35.207L65.0472 34.8535L67.1058 36.9121L66.7523 37.2657L67.4385 37.9519L67.792 37.5983L69.8403 39.6465L69.4971 39.9897L69.5076 40.0001L69.4972 40.0105L69.8403 40.3537L67.792 42.4019L67.4385 42.0483L66.7523 42.7345L67.1058 43.0881L65.0472 45.1467L64.6936 44.7932L64.0074 45.4794L64.361 45.833L62.3023 47.8916L61.9488 47.538L61.2625 48.2243L61.6161 48.5778L59.5574 50.6365L59.2039 50.2829L58.5177 50.9691L58.8712 51.3227L56.8126 53.3813L56.459 53.0278L55.7728 53.714L56.1263 54.0676L54.0677 56.1262L53.7141 55.7727L53.0279 56.4589L53.3815 56.8124L51.3228 58.8711L50.9693 58.5175L50.283 59.2038L50.6366 59.5573L48.5779 61.616L48.2244 61.2624L47.5382 61.9486L47.8917 62.3022L45.8331 64.3608L45.4795 64.0073L44.7933 64.6935L45.1469 65.047L43.0882 67.1057L42.7347 66.7521L42.0484 67.4384L42.402 67.7919L40.3538 69.8401L40.0107 69.497L40.0002 69.5075L39.9898 69.497L39.6467 69.8401L37.5985 67.7919L37.952 67.4384L37.2658 66.7521L36.9122 67.1057L34.8536 65.047L35.2071 64.6935L34.5209 64.0073L34.1674 64.3608L32.1087 62.3022L32.4623 61.9486L31.7761 61.2624L31.4225 61.616L29.3638 59.5573L29.7174 59.2038L29.0312 58.5175L28.6776 58.8711L26.619 56.8124L26.9725 56.4589L26.2863 55.7727L25.9328 56.1262L23.8741 54.0676L24.2277 53.714L23.5414 53.0278L23.1879 53.3813L21.1292 51.3227L21.4828 50.9691L20.7966 50.2829L20.443 50.6365L18.3844 48.5778L18.7379 48.2243L18.0517 47.538L17.6981 47.8916L15.6395 45.8329L15.993 45.4794L15.3068 44.7932L14.9533 45.1467L12.8946 43.0881L13.2482 42.7345L12.562 42.0483L12.2084 42.4019L10.1602 40.3537L10.5033 40.0105Z" stroke="#1A1B1C" stroke-dasharray="1 3"/>
<path d="M44.5161 40L36.9677 35.642L36.9677 44.3581L44.5161 40Z" fill="#1A1B1C"/>
</svg>
